<svg width="512" height="512" viewBox="0 0 512 512" fill="none" xmlns="http://www.w3.org/2000/svg">
  <!-- Medical Cross Background Circle -->
  <circle cx="256" cy="256" r="240" fill="#EBF5FF"/>
  
  <!-- Medical Cross -->
  <rect x="156" y="226" width="200" height="60" rx="8" fill="#FF4757"/>
  <rect x="226" y="156" width="60" height="200" rx="8" fill="#FF4757"/>
  
  <!-- Medical Snake Symbol (Caduceus) Stylized -->
  <path d="M256 380C256 380 320 340 320 300C320 260 256 280 256 240C256 200 320 220 320 180C320 140 256 100 256 100" stroke="#2E86DE" stroke-width="16" stroke-linecap="round"/>
  <path d="M256 380C256 380 192 340 192 300C192 260 256 280 256 240C256 200 192 220 192 180C192 140 256 100 256 100" stroke="#10AC84" stroke-width="16" stroke-linecap="round"/>
  
  <!-- Dots representing health/medical data -->
  <circle cx="180" cy="430" r="15" fill="#2E86DE"/>
  <circle cx="220" cy="430" r="15" fill="#10AC84"/>
  <circle cx="332" cy="430" r="15" fill="#FFDD59"/>
  <circle cx="372" cy="430" r="15" fill="#A367DC"/>
</svg> 