<svg width="800" height="600" xmlns="http://www.w3.org/2000/svg">
    <defs>
        <linearGradient id="grad1" x1="0%" y1="0%" x2="100%" y2="100%">
            <stop offset="0%" style="stop-color:#E3F2FD;stop-opacity:1" />
            <stop offset="100%" style="stop-color:#BBDEFB;stop-opacity:1" />
        </linearGradient>
    </defs>

    <!-- Background -->
    <rect width="800" height="600" fill="url(#grad1)" rx="20" ry="20" />

    <!-- Hospital Building -->
    <rect x="150" y="200" width="500" height="300" fill="#FFFFFF" rx="10" ry="10" stroke="#90CAF9"
        stroke-width="4" />

    <!-- Windows -->
    <rect x="190" y="250" width="80" height="80" fill="#E3F2FD" rx="5" ry="5" stroke="#90CAF9"
        stroke-width="2" />
    <rect x="310" y="250" width="80" height="80" fill="#E3F2FD" rx="5" ry="5" stroke="#90CAF9"
        stroke-width="2" />
    <rect x="430" y="250" width="80" height="80" fill="#E3F2FD" rx="5" ry="5" stroke="#90CAF9"
        stroke-width="2" />
    <rect x="550" y="250" width="50" height="80" fill="#E3F2FD" rx="5" ry="5" stroke="#90CAF9"
        stroke-width="2" />

    <!-- Door -->
    <rect x="310" y="380" width="180" height="120" fill="#90CAF9" rx="5" ry="5" />

    <!-- Red Cross -->
    <circle cx="400" cy="150" r="60" fill="#FFFFFF" stroke="#FF5252" stroke-width="4" />
    <rect x="390" y="100" width="20" height="100" fill="#FF5252" rx="5" ry="5" />
    <rect x="350" y="140" width="100" height="20" fill="#FF5252" rx="5" ry="5" />

    <!-- People -->
    <circle cx="200" cy="460" r="25" fill="#2196F3" />
    <circle cx="250" cy="460" r="25" fill="#4CAF50" />
    <circle cx="550" cy="460" r="25" fill="#FFC107" />
    <circle cx="600" cy="460" r="25" fill="#9C27B0" />

    <!-- Health Icons -->
    <path d="M100,100 L120,120 M100,120 L120,100" stroke="#2196F3" stroke-width="8"
        stroke-linecap="round" />
    <path d="M680,100 Q700,80 720,100 T760,100" stroke="#4CAF50" stroke-width="8" fill="none"
        stroke-linecap="round" />
    <circle cx="680" cy="180" r="15" fill="none" stroke="#FFC107" stroke-width="8" />
    <rect x="100" y="160" width="30" height="30" fill="none" stroke="#9C27B0" stroke-width="8"
        rx="5" ry="5" />
</svg> 